# xmcd CD database file
#
# Track frame offsets:
#	150
#	22901
#	41185
#	57643
#	71352
#	88080
#	111383
#	127417
#	136584
#	157313
#	175562
#	197166
#	220495
#	238448
#	257287
#	273390
#
# Disc length: 3834 seconds
#
# Revision: 0
# Processed by: cddbd v1.5.1PL2 Copyright (c) Steve Scherf et al.
# Submitted via: CDex 1.51
#
DISCID=f70ef810
DTITLE=Razzamajazz! - the sauna sessions
DYEAR=2005
DGENRE=Jazz
TTITLE0=Summertime
TTITLE1=Caravan
TTITLE2=Autumn Leaves
TTITLE3=Satin Doll
TTITLE4=40 Below
TTITLE5=Crazy
TTITLE6=Minor Swing
TTITLE7=Honeysuckle Rose
TTITLE8=Georgia on my Mind
TTITLE9=Moonglow
TTITLE10=I Cover the Waterfront
TTITLE11=Since I Fell for You
TTITLE12=Meditation
TTITLE13=I Ain't Got Nothin' but the Blues
TTITLE14='Round Midnight
TTITLE15=Flight of the Great Snowy Owl
EXTD=YEAR: 2005
EXTT0=
EXTT1=
EXTT2=
EXTT3=
EXTT4=
EXTT5=
EXTT6=
EXTT7=
EXTT8=
EXTT9=
EXTT10=
EXTT11=
EXTT12=
EXTT13=
EXTT14=
EXTT15=
PLAYORDER=
